<svg width="181" height="63" viewBox="0 0 181 63" fill="none" xmlns="http://www.w3.org/2000/svg">
<path d="M89.124 0.700584H93.0916V17.0603H89.124V10.6796H82.3322V17.0603H78.3646V0.700584H82.3322V7.03431H89.124V0.700584Z" fill="black"/>
<path d="M107.632 11.1709C107.632 14.3491 105.274 17.3408 101.098 17.3408C96.9212 17.3408 94.5634 14.3491 94.5634 11.1709C94.5634 7.99262 96.9212 5.00091 101.098 5.00091C105.274 5.00091 107.632 7.99262 107.632 11.1709ZM103.898 11.1709C103.898 9.60453 102.965 8.17916 101.098 8.17916C99.2307 8.17916 98.2978 9.60453 98.2978 11.1709C98.2978 12.7372 99.2307 14.1626 101.098 14.1626C102.965 14.1626 103.898 12.7372 103.898 11.1709Z" fill="black"/>
<path d="M112.813 17.0603H108.985V5.28143H112.696V7.03431C113.21 5.91224 114.61 5.00091 116.244 5.00091C119.069 5.00091 120.469 6.94033 120.469 9.7455V17.0603H116.641V10.3763C116.641 9.16169 116.058 8.32013 114.774 8.32013C113.584 8.32013 112.813 9.04492 112.813 10.3535V17.0603Z" fill="black"/>
<path d="M131.46 7.03431V0H135.289V17.0603H131.601V15.3074C130.947 16.4295 129.595 17.3408 127.82 17.3408C124.413 17.3408 121.938 14.6766 121.938 11.1709C121.938 7.66511 124.413 5.00091 127.82 5.00091C129.593 5.00091 130.924 5.84246 131.46 7.03431ZM131.46 11.1709C131.46 9.44078 130.27 8.17916 128.589 8.17916C126.908 8.17916 125.765 9.46498 125.765 11.1709C125.765 12.8768 126.933 14.1626 128.589 14.1626C130.246 14.1626 131.46 12.901 131.46 11.1709Z" fill="black"/>
<path d="M146.351 7.03431V5.28143H150.108V17.0603H146.421V15.3074C145.766 16.4295 144.414 17.3408 142.639 17.3408C139.232 17.3408 136.758 14.6766 136.758 11.1709C136.758 7.66512 139.232 5.00091 142.639 5.00091C144.413 5.00091 145.813 5.84246 146.351 7.03431ZM146.281 11.1709C146.281 9.44078 145.091 8.17916 143.41 8.17916C141.729 8.17916 140.586 9.46499 140.586 11.1709C140.586 12.8768 141.753 14.1626 143.41 14.1626C145.067 14.1626 146.281 12.901 146.281 11.1709Z" fill="black"/>
<path d="M83.9662 35.5574H82.3322V39.8805H78.3646V23.5208H86.324C89.7782 23.5208 92.345 26.138 92.345 29.5498C92.345 32.0972 90.9215 34.1534 88.7969 35.0647L93.2309 39.8791H87.8868L83.9662 35.556V35.5574ZM85.7637 32.1442C87.2341 32.1442 88.3774 31.1389 88.3774 29.5498C88.3774 27.9606 87.2341 26.9326 85.7637 26.9326H82.3322V32.1442H85.7637Z" fill="black"/>
<path d="M102.078 36.211H105.602C104.878 38.4309 102.544 40.161 99.6032 40.161C95.4949 40.161 93.1613 37.5908 93.1613 33.9683C93.1613 30.3458 95.775 27.8225 99.4397 27.8225C103.104 27.8225 105.695 30.2062 105.695 34.0153V35.1601H96.9198C97.153 36.446 97.9465 37.3801 99.6032 37.3801C100.747 37.3801 101.634 36.9358 102.078 36.211ZM96.9198 32.7992H102.031C101.844 31.3966 100.934 30.4853 99.4866 30.4853C98.039 30.4853 97.1288 31.3269 96.9198 32.7992Z" fill="black"/>
<path d="M109.849 36.211C109.919 37.0526 110.456 37.5894 111.483 37.5894C112.346 37.5894 112.884 37.1223 112.884 36.4915C112.884 35.9533 112.581 35.65 111.927 35.4862L110.317 35.0661C108.053 34.5051 107.049 33.43 107.049 31.5134C107.049 29.1995 109.056 27.8211 111.46 27.8211C114.098 27.8211 115.569 29.3404 115.778 31.4906H112.627C112.604 30.9766 112.299 30.3927 111.53 30.3927C110.853 30.3927 110.479 30.7672 110.479 31.2813C110.479 31.7953 110.806 32.0759 111.389 32.2154L113.467 32.7764C115.404 33.2905 116.314 34.4126 116.314 36.1184C116.314 38.5719 114.027 40.161 111.529 40.161C109.03 40.161 106.954 39.039 106.698 36.211H109.849Z" fill="black"/>
<path d="M126.186 36.211H129.71C128.986 38.4309 126.652 40.161 123.712 40.161C119.603 40.161 117.27 37.5908 117.27 33.9683C117.27 30.3458 119.883 27.8225 123.548 27.8225C127.213 27.8225 129.804 30.2062 129.804 34.0153V35.1601H121.028C121.261 36.446 122.055 37.3801 123.712 37.3801C124.855 37.3801 125.742 36.9358 126.186 36.211ZM121.028 32.7992H126.139C125.953 31.3966 125.043 30.4853 123.595 30.4853C122.147 30.4853 121.237 31.3269 121.028 32.7992Z" fill="black"/>
<path d="M140.586 29.8545V28.1016H144.343V39.8805H140.656V38.1276C140.001 39.2497 138.649 40.161 136.874 40.161C133.467 40.161 130.993 37.4968 130.993 33.9911C130.993 30.4853 133.467 27.8211 136.874 27.8211C138.648 27.8211 140.048 28.6626 140.586 29.8545ZM140.516 33.9911C140.516 32.261 139.326 30.9993 137.645 30.9993C135.964 30.9993 134.821 32.2852 134.821 33.9911C134.821 35.697 135.988 36.9828 137.645 36.9828C139.302 36.9828 140.516 35.7212 140.516 33.9911Z" fill="black"/>
<path d="M154.123 31.8181H153.352C151.251 31.8181 150.388 32.6825 150.388 34.9736V39.8819H146.56V28.103H150.272V30.4397C150.762 28.5473 152.208 28.0091 153.749 28.0091H154.123V31.8181Z" fill="black"/>
<path d="M167.473 32.6355H163.761C163.412 31.7711 162.641 30.9993 161.17 30.9993C159.397 30.9993 158.463 32.3549 158.463 33.9911C158.463 35.6272 159.396 36.9828 161.17 36.9828C162.641 36.9828 163.412 36.211 163.761 35.3467H167.473C166.982 37.9169 164.626 40.161 161.195 40.161C157.227 40.161 154.683 37.5438 154.683 33.9911C154.683 30.4383 157.227 27.8211 161.195 27.8211C164.626 27.8211 166.982 30.0652 167.473 32.6355Z" fill="black"/>
<path d="M172.793 39.8805H168.965V22.8202H172.793V29.7377C173.306 28.5929 174.66 27.8211 176.224 27.8211C179.049 27.8211 180.449 29.7605 180.449 32.5657V39.8805H176.621V33.1965C176.621 31.9819 176.038 31.1403 174.754 31.1403C173.611 31.1403 172.793 31.8409 172.793 33.1737V39.8805Z" fill="black"/>
<path d="M78.4812 62.7007V46.341H82.4488V62.7007H78.4812Z" fill="black"/>
<path d="M88.7273 62.7007H84.899V50.9218H88.6106V52.6747C89.124 51.5526 90.5247 50.6413 92.1587 50.6413C94.9829 50.6413 96.3837 52.5807 96.3837 55.3859V62.7007H92.5555V56.0167C92.5555 54.8021 91.9724 53.9605 90.6883 53.9605C89.498 53.9605 88.7273 54.6853 88.7273 55.9939V62.7007Z" fill="black"/>
<path d="M100.887 59.0312C100.957 59.8727 101.495 60.4096 102.521 60.4096C103.385 60.4096 103.922 59.9425 103.922 59.3117C103.922 58.7735 103.619 58.4702 102.965 58.3064L101.355 57.8863C99.0913 57.3253 98.0873 56.2502 98.0873 54.3336C98.0873 52.0197 100.094 50.6413 102.499 50.6413C105.137 50.6413 106.607 52.1606 106.816 54.3108H103.665C103.642 53.7968 103.338 53.2129 102.568 53.2129C101.891 53.2129 101.517 53.5874 101.517 54.1015C101.517 54.6155 101.844 54.896 102.427 55.0356L104.505 55.5966C106.442 56.1107 107.352 57.2328 107.352 58.9386C107.352 61.3921 105.065 62.9812 102.567 62.9812C100.068 62.9812 97.992 61.8592 97.7361 59.0312H100.887Z" fill="black"/>
<path d="M116.29 59.615V62.6537C115.893 62.8175 114.819 62.9812 114.026 62.9812C111.202 62.9812 109.918 61.2981 109.918 58.7037V54.0759H107.887V50.9204H109.918V47.3918H113.746V50.9204H116.406V54.0759H113.746V58.4702C113.746 59.3815 114.165 59.8016 115.077 59.8016C115.543 59.8016 115.917 59.7318 116.29 59.615Z" fill="black"/>
<path d="M120.21 49.589C118.997 49.589 118.016 48.6535 118.016 47.4161C118.016 46.1786 118.996 45.2659 120.21 45.2659C121.425 45.2659 122.405 46.2242 122.405 47.4161C122.405 48.6079 121.448 49.589 120.21 49.589ZM118.298 62.7007V50.9218H122.126V62.7007H118.298Z" fill="black"/>
<path d="M132.09 59.615V62.6537C131.694 62.8175 130.62 62.9812 129.827 62.9812C127.002 62.9812 125.718 61.2981 125.718 58.7037V54.0759H123.687V50.9204H125.718V47.3918H129.546V50.9204H132.207V54.0759H129.546V58.4702C129.546 59.3815 129.966 59.8016 130.876 59.8016C131.342 59.8016 131.716 59.7318 132.089 59.615H132.09Z" fill="black"/>
<path d="M141.776 50.9218H145.604V62.7007H141.893V60.9478C141.379 62.0699 140.026 62.9812 138.392 62.9812C135.567 62.9812 134.214 61.0418 134.214 58.2366V50.9218H138.042V57.6528C138.042 58.8674 138.578 59.709 139.862 59.709C141.075 59.709 141.776 58.9372 141.776 57.6756V50.9218Z" fill="black"/>
<path d="M155.452 59.615V62.6537C155.055 62.8175 153.982 62.9812 153.188 62.9812C150.364 62.9812 149.08 61.2981 149.08 58.7037V54.0759H147.049V50.9204H149.08V47.3918H152.908V50.9204H155.569V54.0759H152.908V58.4702C152.908 59.3815 153.328 59.8016 154.238 59.8016C154.704 59.8016 155.078 59.7318 155.451 59.615H155.452Z" fill="black"/>
<path d="M165.559 59.0312H169.083C168.359 61.2511 166.025 62.9812 163.084 62.9812C158.976 62.9812 156.643 60.411 156.643 56.7885C156.643 53.1659 159.256 50.6427 162.921 50.6427C166.586 50.6427 169.175 53.0264 169.175 56.8355V57.9803H160.4C160.633 59.2661 161.426 60.2003 163.083 60.2003C164.226 60.2003 165.114 59.756 165.557 59.0312H165.559ZM160.401 55.6194H165.512C165.326 54.2168 164.416 53.3055 162.968 53.3055C161.52 53.3055 160.61 54.147 160.401 55.6194Z" fill="black"/>
<path d="M37.628 35.5531L18.8154 30.8541C17.8001 30.5992 16.9696 29.3419 16.9696 28.2939V2.56311C16.9696 1.51508 16.1135 0.657864 15.0668 0.657864H1.90273C0.856085 0.657864 0 1.51508 0 2.56311V60.8923C0 61.9403 0.856085 62.7975 1.90273 62.7975H15.0668C16.1135 62.7975 16.9696 61.9403 16.9696 60.8923V39.9816C16.9696 38.683 18.0205 37.6207 19.3131 37.6008H20.1621C21.4548 37.6207 22.5057 38.683 22.5057 39.9816C22.5057 40.0343 22.5057 60.8923 22.5057 60.8923C22.5057 61.9403 23.3618 62.7975 24.4084 62.7975H37.5711C38.6178 62.7975 39.4738 61.9403 39.4738 60.8923V38.1077C39.4738 37.0597 38.6433 35.808 37.628 35.5531Z" fill="#CC0000"/>
<path d="M60.0768 0.657864H24.407C23.3604 0.657864 22.5043 1.51508 22.5043 2.56311V23.9679C22.5043 25.0159 23.3348 26.2733 24.3501 26.5282L37.601 29.8431C38.6163 30.098 39.4753 29.6366 39.4753 28.5886V10.4931C39.498 9.20155 40.5589 8.15353 41.853 8.15353H42.6294C43.9377 8.15353 45.0085 9.22576 45.01 10.5358V15.3359C45.01 16.3839 45.8404 17.6413 46.8558 17.8962L60.1337 21.2168C61.149 21.4717 61.9795 20.821 61.9795 19.7729V2.56453C61.9795 1.5165 61.1234 0.659289 60.0768 0.659289V0.657864Z" fill="#CC0000"/>
<path d="M60.1337 26.9254L46.8558 23.6034C45.8404 23.3485 45.01 23.8127 45.01 24.8607V60.8923C45.01 61.9403 45.866 62.7975 46.9127 62.7975H60.0768C61.1234 62.7975 61.9795 61.9403 61.9795 60.8923V29.4857C61.9795 28.4377 61.149 27.1803 60.1337 26.9254Z" fill="#CC0000"/>
</svg>
